<svg width="175" height="175" viewBox="0 0 175 175" fill="none" xmlns="http://www.w3.org/2000/svg">
<path d="M141.427 92.8265L87.6313 1.49484C87.3709 1.04386 86.9936 0.668194 86.5377 0.405752C86.0818 0.143309 85.5633 0.00337153 85.0347 6.01651e-05C84.506 -0.0032512 83.9858 0.13018 83.5266 0.38689C83.0673 0.6436 82.6854 1.01451 82.4191 1.46219L66.3079 28.8291C65.7803 29.7249 65.5025 30.7411 65.5025 31.7755C65.5025 32.8099 65.7803 33.8261 66.3079 34.7219L101.386 94.3039C101.914 95.2006 102.674 95.945 103.589 96.4623C104.504 96.9796 105.542 97.2513 106.598 97.2503H138.821C139.348 97.2488 139.866 97.1115 140.322 96.8524C140.779 96.5932 141.158 96.2211 141.422 95.7733C141.686 95.3255 141.825 94.8177 141.826 94.3006C141.826 93.7835 141.689 93.2752 141.427 92.8265Z" fill="#0C0C0E"/>
<path d="M0.414818 140.56L54.2102 49.2282C54.4741 48.7808 54.8536 48.4093 55.3103 48.1511C55.767 47.8928 56.2849 47.7569 56.8121 47.7569C57.3393 47.7569 57.8574 47.8928 58.3141 48.1511C58.7708 48.4093 59.1501 48.7808 59.414 49.2282L75.5336 76.5706C76.0611 77.4679 76.3387 78.4854 76.3387 79.5211C76.3387 80.5568 76.0611 81.5743 75.5336 82.4716L40.4553 142.054C39.9292 142.95 39.171 143.695 38.2573 144.212C37.3436 144.729 36.3067 145.001 35.2515 145H3.02091C2.48997 145.003 1.96782 144.867 1.50753 144.608C1.04723 144.348 0.665279 143.974 0.400487 143.523C0.135695 143.072 -0.00249281 142.56 3.40419e-05 142.04C0.0025609 141.519 0.145658 141.009 0.414818 140.56Z" fill="#0C0C0E"/>
<path d="M59.4063 144.98H166.997C167.525 144.98 168.043 144.843 168.5 144.584C168.957 144.325 169.336 143.952 169.599 143.504C169.862 143.056 170.001 142.547 170 142.03C169.999 141.512 169.86 141.004 169.595 140.557L153.5 113.198C152.972 112.301 152.212 111.557 151.297 111.04C150.382 110.522 149.344 110.251 148.288 110.252H78.1319C77.0756 110.251 76.0378 110.522 75.1228 111.04C74.2078 111.557 73.4478 112.301 72.9197 113.198L56.8087 140.557C56.544 141.004 56.4043 141.512 56.4035 142.03C56.4028 142.547 56.5409 143.056 56.8042 143.504C57.0675 143.952 57.4467 144.325 57.9035 144.584C58.3603 144.843 58.8785 144.98 59.4063 144.98Z" fill="#0C0C0E"/>
</svg>